<?xml version="1.0" encoding="iso-8859-1"?>
<!-- Generator: Adobe Illustrator 19.0.0, SVG Export Plug-In . SVG Version: 6.00 Build 0)  -->
<svg xmlns="http://www.w3.org/2000/svg" xmlns:xlink="http://www.w3.org/1999/xlink" version="1.1" id="Capa_1" x="0px" y="0px" viewBox="0 0 480 480" style="enable-background:new 0 0 480 480;" xml:space="preserve" width="512px" height="512px">
<g>
	<g>
		<path d="M448,0H32C14.327,0,0,14.327,0,32v416c0,17.673,14.327,32,32,32h416c17.673,0,32-14.327,32-32V32    C480,14.327,465.673,0,448,0z M464,448c0,8.837-7.163,16-16,16H32c-8.837,0-16-7.163-16-16V80h448V448z M464,64H16V32    c0-8.837,7.163-16,16-16h416c8.837,0,16,7.163,16,16V64z" fill="#0000ef"/>
	</g>
</g>
<g>
	<g>
		<rect x="32" y="32" width="16" height="16" fill="#0000ef"/>
	</g>
</g>
<g>
	<g>
		<rect x="64" y="32" width="16" height="16" fill="#0000ef"/>
	</g>
</g>
<g>
	<g>
		<rect x="96" y="32" width="16" height="16" fill="#0000ef"/>
	</g>
</g>
<g>
	<g>
		<path d="M432,104H48c-4.418,0-8,3.582-8,8v48c0,4.418,3.582,8,8,8h384c4.418,0,8-3.582,8-8v-48C440,107.582,436.418,104,432,104z     M424,152H56v-32h368V152z" fill="#0000ef"/>
	</g>
</g>
<g>
	<g>
		<path d="M432,392H48c-4.418,0-8,3.582-8,8v32c0,4.418,3.582,8,8,8h384c4.418,0,8-3.582,8-8v-32C440,395.582,436.418,392,432,392z     M424,424H56v-16h368V424z" fill="#0000ef"/>
	</g>
</g>
<g>
	<g>
		<rect x="40" y="184" width="400" height="16" fill="#0000ef"/>
	</g>
</g>
<g>
	<g>
		<rect x="40" y="360" width="400" height="16" fill="#0000ef"/>
	</g>
</g>
<g>
	<g>
		<path d="M120,216H48c-4.418,0-8,3.582-8,8v112c0,4.418,3.582,8,8,8h72c4.418,0,8-3.582,8-8V224C128,219.582,124.418,216,120,216z     M105.344,232L84,265.208L62.656,232H105.344z M56,251.28L74.488,280L56,308.8V251.28z M62.656,328L84,294.792L105.344,328H62.656    z M112,308.8L93.512,280L112,251.24V308.8z" fill="#0000ef"/>
	</g>
</g>
<g>
	<g>
		<path d="M432,216H152c-4.418,0-8,3.582-8,8v112c0,4.418,3.582,8,8,8h280c4.418,0,8-3.582,8-8V224C440,219.582,436.418,216,432,216    z M424,328H160v-96h264V328z" fill="#0000ef"/>
	</g>
</g>
<g>
	<g>
		<rect x="216" y="256" width="184" height="16" fill="#0000ef"/>
	</g>
</g>
<g>
	<g>
		<rect x="184" y="288" width="216" height="16" fill="#0000ef"/>
	</g>
</g>
<g>
	<g>
		<rect x="184" y="256" width="16" height="16" fill="#0000ef"/>
	</g>
</g>
<g>
</g>
<g>
</g>
<g>
</g>
<g>
</g>
<g>
</g>
<g>
</g>
<g>
</g>
<g>
</g>
<g>
</g>
<g>
</g>
<g>
</g>
<g>
</g>
<g>
</g>
<g>
</g>
<g>
</g>
</svg>
