<?xml version="1.0" encoding="iso-8859-1"?>
<!-- Generator: Adobe Illustrator 16.0.0, SVG Export Plug-In . SVG Version: 6.00 Build 0)  -->
<!DOCTYPE svg PUBLIC "-//W3C//DTD SVG 1.1//EN" "http://www.w3.org/Graphics/SVG/1.1/DTD/svg11.dtd">
<svg version="1.1" id="Capa_1" xmlns="http://www.w3.org/2000/svg" xmlns:xlink="http://www.w3.org/1999/xlink" x="0px" y="0px"
	 width="612.026px" height="612.026px" viewBox="0 0 612.026 612.026" style="enable-background:new 0 0 612.026 612.026;"
	 xml:space="preserve">
<g>
	<g id="Ellipse_4_copy_4">
		<g>
			<path fill="#ffffff" d="M93.13,172.97c14.688,0,26.609-11.921,26.609-26.609c0-14.701-11.908-26.608-26.609-26.608s-26.608,11.907-26.608,26.608
				C66.522,161.049,78.429,172.97,93.13,172.97z M518.869,172.97c14.688,0,26.609-11.921,26.609-26.609
				c0-14.701-11.907-26.608-26.609-26.608c-14.701,0-26.608,11.907-26.608,26.608C492.261,161.049,504.168,172.97,518.869,172.97z
				 M93.13,239.492c46.898,0,85.6-34.711,92.066-79.826h241.607c6.466,45.115,45.168,79.826,92.079,79.826
				c51.435,0,93.131-41.696,93.131-93.131s-41.696-93.13-93.131-93.13c-46.911,0-85.6,34.711-92.079,79.826H185.21
				c-6.479-45.115-45.168-79.826-92.08-79.826C41.696,53.231,0,94.927,0,146.361S41.696,239.492,93.13,239.492z M518.869,79.84
				c36.733,0,66.522,29.775,66.522,66.521c0,36.733-29.789,66.522-66.522,66.522c-36.732,0-66.521-29.789-66.521-66.522
				C452.348,109.615,482.137,79.84,518.869,79.84z M93.13,79.84c36.733,0,66.522,29.775,66.522,66.521
				c0,36.733-29.789,66.522-66.522,66.522s-66.521-29.789-66.521-66.522C26.609,109.615,56.397,79.84,93.13,79.84z M518.869,372.536
				c-46.911,0-85.6,34.711-92.079,79.826H185.21c-6.479-45.115-45.168-79.826-92.066-79.826c-51.435,0-93.13,41.695-93.13,93.131
				c0,51.434,41.696,93.129,93.13,93.129c46.911,0,85.601-34.711,92.08-79.824h241.593c6.467,45.113,45.169,79.824,92.08,79.824
				c51.435,0,93.13-41.695,93.13-93.129C612,414.231,570.305,372.536,518.869,372.536z M93.13,532.188
				c-36.733,0-66.521-29.789-66.521-66.521c0-36.748,29.788-66.521,66.521-66.521s66.522,29.787,66.522,66.521
				C159.652,502.399,129.864,532.188,93.13,532.188z M518.869,532.188c-36.732,0-66.521-29.789-66.521-66.521
				c0-36.748,29.789-66.521,66.521-66.521c36.733,0,66.522,29.787,66.522,66.521C585.392,502.399,555.603,532.188,518.869,532.188z
				 M93.13,439.057c-14.701,0-26.608,11.92-26.608,26.609c0,14.688,11.907,26.607,26.608,26.607
				c14.688,0,26.609-11.906,26.609-26.607S107.832,439.057,93.13,439.057z M518.869,439.057c-14.701,0-26.608,11.92-26.608,26.609
				c0,14.688,11.907,26.607,26.608,26.607c14.688,0,26.609-11.906,26.609-26.607S533.571,439.057,518.869,439.057z"/>
		</g>
	</g>
</g>
<g>
</g>
<g>
</g>
<g>
</g>
<g>
</g>
<g>
</g>
<g>
</g>
<g>
</g>
<g>
</g>
<g>
</g>
<g>
</g>
<g>
</g>
<g>
</g>
<g>
</g>
<g>
</g>
<g>
</g>
</svg>
