<?xml version="1.0" encoding="iso-8859-1"?>
<!-- Generator: Adobe Illustrator 16.0.0, SVG Export Plug-In . SVG Version: 6.00 Build 0)  -->
<!DOCTYPE svg PUBLIC "-//W3C//DTD SVG 1.1//EN" "http://www.w3.org/Graphics/SVG/1.1/DTD/svg11.dtd">
<svg version="1.1" id="Capa_1" xmlns="http://www.w3.org/2000/svg" xmlns:xlink="http://www.w3.org/1999/xlink" x="0px" y="0px"
	 width="612px" height="612px" viewBox="0 0 612 612" style="enable-background:new 0 0 612 612;" xml:space="preserve">
<g>
	<g id="Ellipse_3">
		<g>
			<path fill="#ffffff" d="M306,233.875c-39.828,0-72.125,32.298-72.125,72.125c0,39.828,32.298,72.126,72.125,72.126
				c39.828,0,72.126-32.298,72.126-72.126C378.126,266.172,345.842,233.875,306,233.875z M306,349.275
				c-23.902,0-43.275-19.373-43.275-43.275s19.373-43.275,43.275-43.275s43.275,19.373,43.275,43.275S329.902,349.275,306,349.275z
				 M306,0L0,306l306,306l306-306L306,0z M40.809,306L306,40.809l265.206,265.206L306,571.206L40.809,306z"/>
		</g>
	</g>
</g>
<g>
</g>
<g>
</g>
<g>
</g>
<g>
</g>
<g>
</g>
<g>
</g>
<g>
</g>
<g>
</g>
<g>
</g>
<g>
</g>
<g>
</g>
<g>
</g>
<g>
</g>
<g>
</g>
<g>
</g>
</svg>
