<?xml version="1.0"?>
<svg xmlns="http://www.w3.org/2000/svg" height="512px" viewBox="0 0 496 496" width="512px"><path d="m264 352h-12.183594c-.726562-2.046875-1.542968-4.054688-2.464844-6.039062l12.304688-12.304688c3.128906-3.128906 3.128906-8.183594 0-11.3125l-24-24c-3-3-8.3125-3-11.3125 0l-12.304688 12.304688c-1.984374-.90625-4-1.738282-6.039062-2.464844v-12.183594c0-4.425781-3.585938-8-8-8h-32c-4.414062 0-8 3.574219-8 8v12.167969c-2.0625.726562-4.089844 1.542969-6.0625 2.449219l-12.28125-12.273438c-3.128906-3.128906-8.183594-3.128906-11.3125 0l-24 24c-1.503906 1.496094-2.34375 3.527344-2.34375 5.65625s.839844 4.160156 2.34375 5.65625l12.28125 12.28125c-.90625 1.964844-1.722656 3.992188-2.449219 6.0625h-12.175781c-4.414062 0-8 3.574219-8 8v32c0 4.425781 3.585938 8 8 8h12.183594c.726562 2.046875 1.542968 4.054688 2.464844 6.039062l-12.304688 12.304688c-3.128906 3.128906-3.128906 8.183594 0 11.3125l24 24c3 3 8.3125 3 11.3125 0l12.304688-12.304688c1.984374.90625 4 1.738282 6.039062 2.464844v12.183594c0 4.425781 3.585938 8 8 8h32c4.414062 0 8-3.574219 8-8v-12.167969c2.0625-.726562 4.089844-1.542969 6.0625-2.449219l12.28125 12.273438c3.128906 3.128906 8.183594 3.128906 11.3125 0l24-24c1.503906-1.496094 2.34375-3.527344 2.34375-5.65625s-.839844-4.160156-2.34375-5.65625l-12.28125-12.28125c.90625-1.964844 1.722656-3.992188 2.449219-6.0625h12.175781c4.414062 0 8-3.574219 8-8v-32c0-4.425781-3.585938-8-8-8zm-8 32h-10.097656c-3.644532 0-6.832032 2.472656-7.742188 6-1.25 4.847656-3.105468 9.441406-5.503906 13.648438-1.785156 3.136718-1.257812 7.070312 1.296875 9.617187l10.734375 10.734375-12.6875 12.6875-10.734375-10.734375c-2.546875-2.546875-6.480469-3.074219-9.617187-1.296875-4.207032 2.398438-8.800782 4.246094-13.648438 5.503906-3.535156.917969-6 4.097656-6 7.742188v10.097656h-16v-10.097656c0-3.644532-2.464844-6.832032-5.992188-7.742188-4.71875-1.222656-9.304687-3.097656-13.632812-5.542968-3.128906-1.792969-7.070312-1.242188-9.605469 1.292968l-10.769531 10.777344-12.6875-12.6875 10.765625-10.777344c2.546875-2.542968 3.082031-6.488281 1.296875-9.613281-2.464844-4.3125-4.320312-8.890625-5.535156-13.601563-.902344-3.535156-4.097656-6.007812-7.742188-6.007812h-10.097656v-16h10.097656c3.644532 0 6.832032-2.472656 7.742188-6 1.25-4.847656 3.105468-9.441406 5.503906-13.648438 1.785156-3.136718 1.257812-7.070312-1.296875-9.617187l-10.734375-10.734375 12.6875-12.6875 10.734375 10.734375c2.546875 2.539063 6.480469 3.082031 9.617187 1.296875 4.207032-2.398438 8.800782-4.246094 13.648438-5.503906 3.527344-.910156 6-4.097656 6-7.742188v-10.097656h16v10.097656c0 3.644532 2.464844 6.832032 5.992188 7.742188 4.71875 1.222656 9.304687 3.097656 13.632812 5.542968 3.117188 1.785157 7.0625 1.242188 9.605469-1.292968l10.769531-10.777344 12.6875 12.6875-10.765625 10.777344c-2.546875 2.542968-3.082031 6.488281-1.296875 9.613281 2.464844 4.3125 4.320312 8.890625 5.535156 13.601563.902344 3.535156 4.097656 6.007812 7.742188 6.007812h10.097656zm0 0" fill="#281643"/><path d="m184 336c-22.054688 0-40 17.945312-40 40s17.945312 40 40 40 40-17.945312 40-40-17.945312-40-40-40zm0 64c-13.230469 0-24-10.769531-24-24s10.769531-24 24-24 24 10.769531 24 24-10.769531 24-24 24zm0 0" fill="#281643"/><path d="m493.65625 66.34375-63.992188-63.992188c-1.457031-1.457031-3.457031-2.351562-5.664062-2.351562h-224c-4.414062 0-8 3.585938-8 8v104h-72c-17.648438 0-32 14.351562-32 32v48h-80c-4.414062 0-8 3.585938-8 8v288c0 4.425781 3.585938 8 8 8h352c4.414062 0 8-3.574219 8-8v-72h120c4.414062 0 8-3.574219 8-8v-336c0-2.207031-.894531-4.207031-2.34375-5.65625zm-61.65625-39.03125 36.6875 36.6875h-36.6875zm-328 116.6875c0-8.824219 7.175781-16 16-16h128c8.824219 0 16 7.175781 16 16v48h-16v-40c0-4.414062-3.585938-8-8-8h-112c-4.414062 0-8 3.585938-8 8v40h-16zm192 96h-32c-4.414062 0-8 3.585938-8 8v8h-144v-8c0-4.414062-3.585938-8-8-8h-32c-4.414062 0-8 3.585938-8 8v8h-4.6875l-11.3125-11.3125v-36.6875h272v36.6875l-11.3125 11.3125h-4.6875v-8c0-4.414062-3.585938-8-8-8zm-8 16v32h-16v-32zm-192 0v32h-16v-32zm136-64h-24v-32h24zm-40 0h-56v-32h56zm160 288h-336v-272h16v40c0 2.121094.839844 4.160156 2.34375 5.65625l16 16c1.496094 1.503906 3.535156 2.34375 5.65625 2.34375h8v24c0 4.425781 3.585938 8 8 8h32c4.414062 0 8-3.574219 8-8v-24h144v24c0 4.425781 3.585938 8 8 8h32c4.414062 0 8-3.574219 8-8v-24h8c2.121094 0 4.160156-.839844 5.65625-2.34375l16-16c1.503906-1.496094 2.34375-3.535156 2.34375-5.65625v-40h16zm128-80h-112v-200c0-4.414062-3.585938-8-8-8h-80v-48c0-17.648438-14.351562-32-32-32h-40v-96h208v56c0 4.414062 3.585938 8 8 8h56zm0 0" fill="#281643"/><path d="m400 88v-48c0-4.414062-3.585938-8-8-8h-160c-4.414062 0-8 3.585938-8 8v48c0 4.414062 3.585938 8 8 8h160c4.414062 0 8-3.585938 8-8zm-16-8h-144v-32h144zm0 0" fill="#281643"/><path d="m296 112h168v16h-168zm0 0" fill="#281643"/><path d="m296 144h168v16h-168zm0 0" fill="#281643"/><path d="m384 176h80v16h-80zm0 0" fill="#281643"/><path d="m384 208h80v16h-80zm0 0" fill="#281643"/><path d="m384 240h80v16h-80zm0 0" fill="#281643"/><path d="m384 272h80v16h-80zm0 0" fill="#281643"/><path d="m384 304h80v16h-80zm0 0" fill="#281643"/><path d="m384 336h80v16h-80zm0 0" fill="#281643"/><path d="m384 368h80v16h-80zm0 0" fill="#281643"/></svg>
