<?xml version="1.0" encoding="iso-8859-1"?>
<!-- Generator: Adobe Illustrator 19.0.0, SVG Export Plug-In . SVG Version: 6.00 Build 0)  -->
<svg version="1.1" id="Capa_1" xmlns="http://www.w3.org/2000/svg" xmlns:xlink="http://www.w3.org/1999/xlink" x="0px" y="0px"
	 viewBox="0 0 512.335 512.335" style="enable-background:new 0 0 512.335 512.335;" xml:space="preserve">
<g>
	<g>
		<g>
			<path d="M293.18,337.721c16.449-14.103,26.236-34.453,26.987-56.107c0-27.307,0-99.947-64-99.947s-64,72.64-64,99.947
				c0.75,21.654,10.538,42.003,26.987,56.107c-41.83,15.477-69.615,55.345-69.653,99.947v10.667c0,5.891,4.776,10.667,10.667,10.667
				h192c5.891,0,10.667-4.776,10.667-10.667v-10.667C362.795,393.067,335.01,353.198,293.18,337.721z M213.5,273.188
				c0.853-37.44,7.787-70.187,42.667-70.187c14.755-0.866,28.446,7.69,34.133,21.333h-23.467c-2.835-0.016-5.56,1.097-7.573,3.093
				L213.5,273.188z M170.833,437.668c0.05-26.709,12.603-51.854,33.92-67.947c3.661,23.804,11.421,46.793,22.933,67.947H170.833z
				 M245.5,426.361c-11.145-21.141-18.373-44.125-21.333-67.84c6.844-2.735,14.016-4.564,21.333-5.44V426.361z M217.447,299.001
				l53.333-53.333h25.28c1.866,11.891,2.793,23.91,2.773,35.947c0,21.333-20.053,49.387-42.667,49.387
				C239.527,331.001,224.167,316.068,217.447,299.001z M266.833,352.335c7.318,0.876,14.49,2.705,21.333,5.44
				c-2.96,23.715-10.188,46.699-21.333,67.84V352.335z M284.647,437.668c11.513-21.154,19.272-44.143,22.933-67.947
				c21.317,16.092,33.87,41.237,33.92,67.947H284.647z" fill="#da1e63"/>
			<path d="M64.167,416.335H42.833v32c0,11.782,9.551,21.333,21.333,21.333h32v-21.333h-32V416.335z" fill="#da1e63"/>
			<path d="M512.167,473.295v-305.92c0.24-21.122-16.537-38.516-37.653-39.04c17.844-49.927-8.165-104.865-58.091-122.708
				s-104.865,8.165-122.708,58.091c-7.467,20.892-7.467,43.725,0,64.617H213.5V75.001c0-5.891-4.776-10.667-10.667-10.667H38.353
				C17.069,64.569-0.011,81.983,0.167,103.268v370.133c-0.178,21.285,16.903,38.699,38.187,38.933H473.98
				c21.324-0.234,38.421-17.711,38.187-39.035C512.167,473.298,512.167,473.296,512.167,473.295z M384.167,21.668
				c41.237,0,74.667,33.429,74.667,74.667c0,37.614-27.818,68.718-64,73.896V96.335h21.333V75.001h-32h-32v21.333H373.5v73.896
				c-36.182-5.178-64-36.282-64-73.896C309.5,55.097,342.93,21.668,384.167,21.668z M405.5,189.881v34.453h-42.667v-34.453
				C376.865,193.176,391.469,193.176,405.5,189.881z M490.833,167.375v306.027c0.179,9.503-7.351,17.367-16.853,17.6H38.353
				c-9.483-0.174-17.03-8.002-16.856-17.485c0.001-0.038,0.002-0.077,0.002-0.115V103.268c-0.237-9.482,7.257-17.36,16.738-17.598
				c0.038-0.001,0.077-0.002,0.115-0.003h153.813v42.667H149.5v21.333h154.88c9.345,13.878,22.136,25.089,37.12,32.533v52.8
				c0,5.891,4.776,10.667,10.667,10.667H373.5v10.667h-32v21.333h42.667c5.891,0,10.667-4.776,10.667-10.667v-21.333h21.333
				c5.891,0,10.667-4.776,10.667-10.667v-52.8c14.984-7.444,27.775-18.655,37.12-32.533h10.027
				c9.541,0.233,17.086,8.156,16.854,17.696C490.834,167.368,490.833,167.371,490.833,167.375z" fill="#da1e63"/>
		</g>
	</g>
</g>
<g>
</g>
<g>
</g>
<g>
</g>
<g>
</g>
<g>
</g>
<g>
</g>
<g>
</g>
<g>
</g>
<g>
</g>
<g>
</g>
<g>
</g>
<g>
</g>
<g>
</g>
<g>
</g>
<g>
</g>
</svg>
