<svg aria-hidden="true" style="position: absolute; width: 0; height: 0; overflow: hidden;" version="1.1" xmlns="http://www.w3.org/2000/svg" xmlns:xlink="http://www.w3.org/1999/xlink">
<defs>
<symbol id="icon-medium" viewBox="0 0 32 32">
<title>medium</title>
<path d="M3.795 8.48c0.040-0.393-0.111-0.781-0.404-1.045l-2.987-3.6v-0.537h9.276l7.171 15.727 6.304-15.727h8.845v0.537l-2.556 2.449c-0.22 0.168-0.329 0.444-0.284 0.717v18c-0.045 0.272 0.064 0.547 0.284 0.716l2.493 2.449v0.537h-12.547v-0.537l2.583-2.509c0.253-0.253 0.253-0.328 0.253-0.717v-14.548l-7.187 18.251h-0.969l-8.367-18.251v12.232c-0.069 0.515 0.101 1.032 0.463 1.404l3.36 4.080v0.536h-9.527v-0.537l3.36-4.080c0.36-0.371 0.52-0.893 0.435-1.403v-14.144z"></path>
</symbol>
<symbol id="icon-twitter" viewBox="0 0 32 32">
<title>twitter</title>
<path d="M32 7.075c-1.175 0.525-2.444 0.875-3.769 1.031 1.356-0.813 2.394-2.1 2.887-3.631-1.269 0.75-2.675 1.3-4.169 1.594-1.2-1.275-2.906-2.069-4.794-2.069-3.625 0-6.563 2.938-6.563 6.563 0 0.512 0.056 1.012 0.169 1.494-5.456-0.275-10.294-2.888-13.531-6.862-0.563 0.969-0.887 2.1-0.887 3.3 0 2.275 1.156 4.287 2.919 5.463-1.075-0.031-2.087-0.331-2.975-0.819 0 0.025 0 0.056 0 0.081 0 3.181 2.263 5.838 5.269 6.437-0.55 0.15-1.131 0.231-1.731 0.231-0.425 0-0.831-0.044-1.237-0.119 0.838 2.606 3.263 4.506 6.131 4.563-2.25 1.762-5.075 2.813-8.156 2.813-0.531 0-1.050-0.031-1.569-0.094 2.913 1.869 6.362 2.95 10.069 2.95 12.075 0 18.681-10.006 18.681-18.681 0-0.287-0.006-0.569-0.019-0.85 1.281-0.919 2.394-2.075 3.275-3.394z"></path>
</symbol>
</defs>
</svg>
